<svg xmlns="http://www.w3.org/2000/svg" version="1.1" xmlns:xlink="http://www.w3.org/1999/xlink" xmlns:svgjs="http://svgjs.dev/svgjs" width="1000" height="518" viewBox="0 0 1000 518"><g transform="matrix(1,0,0,1,0.45428469134304805,0)"><svg viewBox="0 0 386 200" data-background-color="#d2d6dc" preserveAspectRatio="xMidYMid meet" height="518" width="1000" xmlns="http://www.w3.org/2000/svg" xmlns:xlink="http://www.w3.org/1999/xlink"><g id="tight-bounds" transform="matrix(1,0,0,1,-0.17535389085841757,0)"><svg viewBox="0 0 386.350691279493 200" height="200" width="386.350691279493"><g><svg viewBox="0 0 433.72548318360833 224.52424337444427" height="200" width="386.350691279493"><g><rect width="5.476312194108128" height="224.52424337444427" x="166.95568594908482" y="0" fill="#6b7280" opacity="1" stroke-width="0" stroke="transparent" fill-opacity="1" class="rect-o-0" data-fill-palette-color="primary" rx="1%" id="o-0" data-palette-color="#6b7280"></rect></g><g transform="matrix(1,0,0,1,186.76789393928752,0.5585180183443725)"><svg viewBox="0 0 246.95758924432081 223.40720733775552" height="223.40720733775552" width="246.95758924432081"><g><svg viewBox="0 0 246.95758924432081 223.40720733775552" height="223.40720733775552" width="246.95758924432081"><g><svg viewBox="0 0 246.95758924432081 198.764" height="198.764" width="246.95758924432081"><g transform="matrix(1,0,0,1,0,0)"><svg width="246.95758924432081" viewBox="1.0000019073486328 -32.5 137.29998779296875 104.5999984741211" height="198.764" data-palette-color="#6b7280"><svg></svg><svg></svg><svg></svg><g class="undefined-text-0" data-fill-palette-color="primary" id="text-0"><path xmlns="http://www.w3.org/2000/svg" d="M30.15-32.1l-0.25 22 0.15 10.1h-5.15l0.25-9.65-0.05-4.35-8.2-0.05-7.5 0.05-0.05 3.9 0.2 10.1h-5.1l0.2-9.65-0.2-22.45h5.15l-0.15 13.8 7.85 0.1 7.75-0.1-0.15-13.8zM50.15-32.5c4.433 0 7.85 1.367 10.25 4.1 2.4 2.733 3.6 6.633 3.6 11.7v0c0 5.467-1.283 9.69-3.85 12.67-2.567 2.987-6.217 4.48-10.95 4.48v0c-4.4 0-7.793-1.41-10.18-4.23-2.38-2.813-3.57-6.803-3.57-11.97v0c0-5.367 1.273-9.5 3.82-12.4 2.553-2.9 6.18-4.35 10.88-4.35zM49.75-28.3c-3.033 0-5.29 0.973-6.77 2.92-1.487 1.953-2.23 4.963-2.23 9.03v0c0 4.433 0.723 7.673 2.17 9.72 1.453 2.053 3.697 3.08 6.73 3.08v0c3.067 0 5.333-0.983 6.8-2.95 1.467-1.967 2.2-5.033 2.2-9.2v0c0-4.367-0.723-7.56-2.17-9.58-1.453-2.013-3.697-3.02-6.73-3.02zM87.45-32.1l0.3 0.45-0.3 3.9-5.8-0.3h-2.7l-0.25 17.95 0.25 10.1h-5.2l0.3-9.65-0.25-18.4h-2.7l-5.9 0.3-0.35-0.45 0.4-3.9z" fill="#6b7280" fill-rule="nonzero" stroke="none" stroke-width="1" stroke-linecap="butt" stroke-linejoin="miter" stroke-miterlimit="10" stroke-dasharray="" stroke-dashoffset="0" font-family="none" font-weight="none" font-size="none" text-anchor="none" style="mix-blend-mode: normal" data-fill-palette-color="primary" opacity="1"></path><path xmlns="http://www.w3.org/2000/svg" d="M19.3 19.25c2.233 0.467 3.893 1.34 4.98 2.62 1.08 1.287 1.62 2.98 1.62 5.08v0c0 6.133-4.583 9.2-13.75 9.2v0c-3.167 0-5.767-0.067-7.8-0.2v0h-0.05l0.35-9.65-0.35-22.45 10-0.05c3.1 0 5.51 0.673 7.23 2.02 1.713 1.353 2.57 3.313 2.57 5.88v0c0 1.8-0.417 3.34-1.25 4.62-0.833 1.287-2.017 2.263-3.55 2.93zM18.8 12.3c0-1.6-0.45-2.75-1.35-3.45-0.9-0.7-2.417-1.05-4.55-1.05v0h-3.4l-0.15 9.85 5.15 0.15c1.467-0.367 2.55-0.993 3.25-1.88 0.7-0.88 1.05-2.087 1.05-3.62zM13 32.15c2.467 0 4.367-0.467 5.7-1.4 1.333-0.933 2-2.3 2-4.1v0c0-2.867-1.85-4.55-5.55-5.05v0l-5.85 0.05-0.05 4.2 0.15 6.15c1.3 0.1 2.5 0.15 3.6 0.15zM43.25 31.8l7.75-0.25 0.3 0.45-0.35 3.95h-18.95l0.35-9.65-0.35-22.45h19.05l0.3 0.45-0.4 3.95-7.6-0.2-6.1 0.05-0.15 9.35 5.8 0.1 5.3-0.15 0.35 0.4-0.4 3.95-5.65-0.15-5.45 0.1-0.05 4.15 0.15 5.9zM70.4 3.85l10.35 32.1h-5.3l-0.75-3.6-1.4-4.45-6.8-0.15-6.15 0.15-1.5 4.2-0.8 3.85h-5.15l11.45-32.1zM66.85 23.8l5.15-0.1-4.6-14.8h-0.35l-5.25 14.8zM111.8 3.75l-0.3 22.6 0.15 9.6h-5.55l-15.1-24.05h-0.35l-0.05 13.3 0.15 10.75h-4.7l0.25-9.5-0.2-22.6h5.45l15.15 24.05h0.4l-0.1-23.8zM129.8 3.5c2.533 0 5.067 0.533 7.6 1.6v0l-0.85 4.7-0.8 0.3c-1.067-0.767-2.167-1.367-3.3-1.8-1.133-0.433-2.217-0.65-3.25-0.65v0c-1.633 0-2.933 0.45-3.9 1.35-0.967 0.9-1.45 1.95-1.45 3.15v0c0 1.167 0.483 2.123 1.45 2.87 0.967 0.753 2.483 1.613 4.55 2.58v0c1.8 0.867 3.26 1.65 4.38 2.35 1.113 0.7 2.07 1.623 2.87 2.77 0.8 1.153 1.2 2.53 1.2 4.13v0c0 1.733-0.473 3.323-1.42 4.77-0.953 1.453-2.287 2.603-4 3.45-1.72 0.853-3.68 1.28-5.88 1.28v0c-1.467 0-2.983-0.183-4.55-0.55-1.567-0.367-3.05-0.9-4.45-1.6v0l0.65-5.1 0.65-0.3c1.233 1.167 2.593 2.04 4.08 2.62 1.48 0.587 2.853 0.88 4.12 0.88v0c1.733 0 3.117-0.46 4.15-1.38 1.033-0.913 1.55-2.003 1.55-3.27v0c0-1.267-0.5-2.293-1.5-3.08-1-0.78-2.533-1.653-4.6-2.62v0c-1.767-0.833-3.2-1.593-4.3-2.28-1.1-0.68-2.04-1.587-2.82-2.72-0.787-1.133-1.18-2.5-1.18-4.1v0c0-1.733 0.467-3.317 1.4-4.75 0.933-1.433 2.233-2.56 3.9-3.38 1.667-0.813 3.567-1.22 5.7-1.22z" fill="#6b7280" fill-rule="nonzero" stroke="none" stroke-width="1" stroke-linecap="butt" stroke-linejoin="miter" stroke-miterlimit="10" stroke-dasharray="" stroke-dashoffset="0" font-family="none" font-weight="none" font-size="none" text-anchor="none" style="mix-blend-mode: normal" data-fill-palette-color="primary" opacity="1"></path><path xmlns="http://www.w3.org/2000/svg" d="M44.5 39.8l-11.1 32.1h-5.4l-5.65-17.25h-0.35l-5.85 17.25h-5.45l-9.7-32.1h5.1l0.55 3.45 6.9 23.15h0.4l6.3-18.6-2.55-8h5.25l0.8 3.95 7 22.65h0.4l7.75-22.85 0.8-3.75zM60.35 67.75l7.75-0.25 0.3 0.45-0.35 3.95h-18.95l0.35-9.65-0.35-22.45h19.05l0.3 0.45-0.4 3.95-7.6-0.2-6.1 0.05-0.15 9.35 5.8 0.1 5.3-0.15 0.35 0.4-0.4 3.95-5.65-0.15-5.45 0.1-0.05 4.15 0.15 5.9zM88.75 55.2c2.233 0.467 3.893 1.34 4.98 2.62 1.08 1.287 1.62 2.98 1.62 5.08v0c0 6.133-4.583 9.2-13.75 9.2v0c-3.167 0-5.767-0.067-7.8-0.2v0h-0.05l0.35-9.65-0.35-22.45 10-0.05c3.1 0 5.51 0.673 7.23 2.02 1.713 1.353 2.57 3.313 2.57 5.88v0c0 1.8-0.417 3.34-1.25 4.62-0.833 1.287-2.017 2.263-3.55 2.93zM88.25 48.25c0-1.6-0.45-2.75-1.35-3.45-0.9-0.7-2.417-1.05-4.55-1.05v0h-3.4l-0.15 9.85 5.15 0.15c1.467-0.367 2.55-0.993 3.25-1.88 0.7-0.88 1.05-2.087 1.05-3.62zM82.45 68.1c2.467 0 4.367-0.467 5.7-1.4 1.333-0.933 2-2.3 2-4.1v0c0-2.867-1.85-4.55-5.55-5.05v0l-5.85 0.05-0.05 4.2 0.15 6.15c1.3 0.1 2.5 0.15 3.6 0.15z" fill="#6b7280" fill-rule="nonzero" stroke="none" stroke-width="1" stroke-linecap="butt" stroke-linejoin="miter" stroke-miterlimit="10" stroke-dasharray="" stroke-dashoffset="0" font-family="none" font-weight="none" font-size="none" text-anchor="none" style="mix-blend-mode: normal" data-fill-palette-color="primary" opacity="1"></path></g></svg></g></svg></g><g transform="matrix(1,0,0,1,0,213.0998957960946)"><svg viewBox="0 0 144.98880064534075 10.30731154166093" height="10.30731154166093" width="144.98880064534075"><g transform="matrix(1,0,0,1,0,0)"><svg width="144.98880064534075" viewBox="1.399999976158142 -38.79999923706055 675.8399658203125 48.04999923706055" height="10.30731154166093" data-palette-color="#6b7280"><path d="M23.25-23.5L23.25-23.5Q21.15-16.8 19-11.1 16.85-5.4 14.7 0L14.7 0 9.85 0Q7.2-7.65 5.18-16.15 3.15-24.65 1.4-34.65L1.4-34.65 6.5-34.65Q7.2-30.75 7.95-26.85 8.7-22.95 9.5-19.28 10.3-15.6 11.1-12.25 11.9-8.9 12.75-6.05L12.75-6.05Q14.75-11.3 17-17.57 19.25-23.85 21.2-30.55L21.2-30.55 25.4-30.55Q27.35-23.85 29.65-17.57 31.95-11.3 33.95-6.05L33.95-6.05Q34.75-8.85 35.55-12.2 36.35-15.55 37.13-19.23 37.9-22.9 38.65-26.83 39.4-30.75 40.1-34.65L40.1-34.65 45.05-34.65Q43.25-24.65 41.23-16.15 39.2-7.65 36.6 0L36.6 0 31.75 0Q29.55-5.4 27.45-11.1 25.35-16.8 23.25-23.5ZM47.9-12.95L47.9-12.95Q47.9-16.4 48.9-18.98 49.9-21.55 51.55-23.25 53.2-24.95 55.35-25.8 57.5-26.65 59.75-26.65L59.75-26.65Q65-26.65 67.8-23.38 70.6-20.1 70.6-13.4L70.6-13.4Q70.6-13.1 70.6-12.63 70.6-12.15 70.55-11.75L70.55-11.75 52.75-11.75Q53.05-7.7 55.1-5.6 57.15-3.5 61.5-3.5L61.5-3.5Q63.95-3.5 65.62-3.93 67.3-4.35 68.15-4.75L68.15-4.75 68.8-0.85Q67.95-0.4 65.82 0.1 63.7 0.6 61 0.6L61 0.6Q57.6 0.6 55.12-0.43 52.65-1.45 51.05-3.25 49.45-5.05 48.67-7.53 47.9-10 47.9-12.95ZM52.85-15.5L65.75-15.5Q65.8-18.65 64.17-20.68 62.55-22.7 59.7-22.7L59.7-22.7Q58.1-22.7 56.87-22.08 55.65-21.45 54.8-20.45 53.95-19.45 53.47-18.15 53-16.85 52.85-15.5L52.85-15.5ZM81.95-38.8L81.95-24.85Q82.8-25.4 84.52-26 86.25-26.6 88.5-26.6L88.5-26.6Q91.3-26.6 93.47-25.6 95.65-24.6 97.15-22.8 98.65-21 99.42-18.5 100.2-16 100.2-13L100.2-13Q100.2-9.85 99.27-7.33 98.35-4.8 96.65-3.05 94.95-1.3 92.55-0.35 90.15 0.6 87.15 0.6L87.15 0.6Q83.9 0.6 81.4 0.15 78.9-0.3 77.3-0.75L77.3-0.75 77.3-38 81.95-38.8ZM81.95-20.5L81.95-4.05Q82.65-3.85 83.92-3.68 85.2-3.5 87.1-3.5L87.1-3.5Q90.85-3.5 93.1-5.98 95.35-8.45 95.35-13L95.35-13Q95.35-15 94.95-16.75 94.55-18.5 93.65-19.78 92.75-21.05 91.32-21.78 89.9-22.5 87.9-22.5L87.9-22.5Q86-22.5 84.4-21.85 82.8-21.2 81.95-20.5L81.95-20.5ZM112.79-3.35L112.79-3.35Q115.64-3.35 117.02-4.1 118.39-4.85 118.39-6.5L118.39-6.5Q118.39-8.2 117.04-9.2 115.69-10.2 112.59-11.45L112.59-11.45Q111.09-12.05 109.72-12.68 108.34-13.3 107.34-14.15 106.34-15 105.74-16.2 105.14-17.4 105.14-19.15L105.14-19.15Q105.14-22.6 107.69-24.63 110.24-26.65 114.64-26.65L114.64-26.65Q115.74-26.65 116.84-26.53 117.94-26.4 118.89-26.23 119.84-26.05 120.57-25.85 121.29-25.65 121.69-25.5L121.69-25.5 120.84-21.5Q120.09-21.9 118.49-22.33 116.89-22.75 114.64-22.75L114.64-22.75Q112.69-22.75 111.24-21.98 109.79-21.2 109.79-19.55L109.79-19.55Q109.79-18.7 110.12-18.05 110.44-17.4 111.12-16.88 111.79-16.35 112.79-15.9 113.79-15.45 115.19-14.95L115.19-14.95Q117.04-14.25 118.49-13.58 119.94-12.9 120.97-12 121.99-11.1 122.54-9.83 123.09-8.55 123.09-6.7L123.09-6.7Q123.09-3.1 120.42-1.25 117.74 0.6 112.79 0.6L112.79 0.6Q109.34 0.6 107.39 0.03 105.44-0.55 104.74-0.85L104.74-0.85 105.59-4.85Q106.39-4.55 108.14-3.95 109.89-3.35 112.79-3.35ZM133.69-26L133.69 0 129.04 0 129.04-26 133.69-26ZM131.34-30.7L131.34-30.7Q130.09-30.7 129.22-31.53 128.34-32.35 128.34-33.75L128.34-33.75Q128.34-35.15 129.22-35.98 130.09-36.8 131.34-36.8L131.34-36.8Q132.59-36.8 133.47-35.98 134.34-35.15 134.34-33.75L134.34-33.75Q134.34-32.35 133.47-31.53 132.59-30.7 131.34-30.7ZM146.04-34.05L146.04-26 155.89-26 155.89-22.1 146.04-22.1 146.04-10.1Q146.04-8.15 146.34-6.88 146.64-5.6 147.24-4.88 147.84-4.15 148.74-3.85 149.64-3.55 150.84-3.55L150.84-3.55Q152.94-3.55 154.21-4.03 155.49-4.5 155.99-4.7L155.99-4.7 156.89-0.85Q156.19-0.5 154.44 0.03 152.69 0.55 150.44 0.55L150.44 0.55Q147.79 0.55 146.06-0.13 144.34-0.8 143.29-2.15 142.24-3.5 141.81-5.48 141.39-7.45 141.39-10.05L141.39-10.05 141.39-33.25 146.04-34.05ZM159.84-12.95L159.84-12.95Q159.84-16.4 160.84-18.98 161.84-21.55 163.49-23.25 165.14-24.95 167.29-25.8 169.44-26.65 171.69-26.65L171.69-26.65Q176.94-26.65 179.74-23.38 182.54-20.1 182.54-13.4L182.54-13.4Q182.54-13.1 182.54-12.63 182.54-12.15 182.49-11.75L182.49-11.75 164.69-11.75Q164.99-7.7 167.04-5.6 169.09-3.5 173.44-3.5L173.44-3.5Q175.89-3.5 177.56-3.93 179.24-4.35 180.09-4.75L180.09-4.75 180.74-0.85Q179.89-0.4 177.76 0.1 175.64 0.6 172.94 0.6L172.94 0.6Q169.54 0.6 167.06-0.43 164.59-1.45 162.99-3.25 161.39-5.05 160.61-7.53 159.84-10 159.84-12.95ZM164.79-15.5L177.69-15.5Q177.74-18.65 176.11-20.68 174.49-22.7 171.64-22.7L171.64-22.7Q170.04-22.7 168.81-22.08 167.59-21.45 166.74-20.45 165.89-19.45 165.41-18.15 164.94-16.85 164.79-15.5L164.79-15.5ZM229.53-17.35L229.53-17.35Q229.53-12.85 228.13-9.53 226.73-6.2 224.18-4.03 221.63-1.85 218.08-0.78 214.53 0.3 210.28 0.3L210.28 0.3Q208.18 0.3 205.66 0.13 203.13-0.05 201.08-0.55L201.08-0.55 201.08-34.15Q203.13-34.65 205.66-34.83 208.18-35 210.28-35L210.28-35Q214.53-35 218.08-33.93 221.63-32.85 224.18-30.68 226.73-28.5 228.13-25.18 229.53-21.85 229.53-17.35ZM210.68-3.95L210.68-3.95Q217.58-3.95 220.98-7.48 224.38-11 224.38-17.35L224.38-17.35Q224.38-23.7 220.98-27.23 217.58-30.75 210.68-30.75L210.68-30.75Q208.63-30.75 207.51-30.7 206.38-30.65 205.93-30.6L205.93-30.6 205.93-4.1Q206.38-4.05 207.51-4 208.63-3.95 210.68-3.95ZM234.98-12.95L234.98-12.95Q234.98-16.4 235.98-18.98 236.98-21.55 238.63-23.25 240.28-24.95 242.43-25.8 244.58-26.65 246.83-26.65L246.83-26.65Q252.08-26.65 254.88-23.38 257.68-20.1 257.68-13.4L257.68-13.4Q257.68-13.1 257.68-12.63 257.68-12.15 257.63-11.75L257.63-11.75 239.83-11.75Q240.13-7.7 242.18-5.6 244.23-3.5 248.58-3.5L248.58-3.5Q251.03-3.5 252.7-3.93 254.38-4.35 255.23-4.75L255.23-4.75 255.88-0.85Q255.03-0.4 252.9 0.1 250.78 0.6 248.08 0.6L248.08 0.6Q244.68 0.6 242.2-0.43 239.73-1.45 238.13-3.25 236.53-5.05 235.75-7.53 234.98-10 234.98-12.95ZM239.93-15.5L252.83-15.5Q252.88-18.65 251.25-20.68 249.63-22.7 246.78-22.7L246.78-22.7Q245.18-22.7 243.95-22.08 242.73-21.45 241.88-20.45 241.03-19.45 240.55-18.15 240.08-16.85 239.93-15.5L239.93-15.5ZM279.88-26L284.68-26Q282.73-18.7 280.1-12 277.48-5.3 275.03 0L275.03 0 270.83 0Q268.38-5.3 265.75-12 263.13-18.7 261.18-26L261.18-26 266.18-26Q266.78-23.55 267.6-20.78 268.43-18 269.35-15.28 270.28-12.55 271.23-10 272.18-7.45 273.03-5.45L273.03-5.45Q273.88-7.45 274.83-10 275.78-12.55 276.7-15.28 277.63-18 278.45-20.78 279.28-23.55 279.88-26L279.88-26ZM287.32-12.95L287.32-12.95Q287.32-16.4 288.32-18.98 289.32-21.55 290.97-23.25 292.62-24.95 294.77-25.8 296.92-26.65 299.17-26.65L299.17-26.65Q304.42-26.65 307.22-23.38 310.02-20.1 310.02-13.4L310.02-13.4Q310.02-13.1 310.02-12.63 310.02-12.15 309.97-11.75L309.97-11.75 292.17-11.75Q292.47-7.7 294.52-5.6 296.57-3.5 300.92-3.5L300.92-3.5Q303.37-3.5 305.05-3.93 306.72-4.35 307.57-4.75L307.57-4.75 308.22-0.85Q307.37-0.4 305.25 0.1 303.12 0.6 300.42 0.6L300.42 0.6Q297.02 0.6 294.55-0.43 292.07-1.45 290.47-3.25 288.87-5.05 288.1-7.53 287.32-10 287.32-12.95ZM292.27-15.5L305.17-15.5Q305.22-18.65 303.6-20.68 301.97-22.7 299.12-22.7L299.12-22.7Q297.52-22.7 296.3-22.08 295.07-21.45 294.22-20.45 293.37-19.45 292.9-18.15 292.42-16.85 292.27-15.5L292.27-15.5ZM325.17-3.4L324.52 0.5Q320.22 0.4 318.42-1.35 316.62-3.1 316.62-6.8L316.62-6.8 316.62-38 321.27-38.8 321.27-7.55Q321.27-6.4 321.47-5.65 321.67-4.9 322.12-4.45 322.57-4 323.32-3.78 324.07-3.55 325.17-3.4L325.17-3.4ZM353.32-13L353.32-13Q353.32-9.9 352.42-7.4 351.52-4.9 349.89-3.1 348.27-1.3 346.02-0.33 343.77 0.65 341.12 0.65L341.12 0.65Q338.47 0.65 336.22-0.33 333.97-1.3 332.34-3.1 330.72-4.9 329.82-7.4 328.92-9.9 328.92-13L328.92-13Q328.92-16.05 329.82-18.57 330.72-21.1 332.34-22.9 333.97-24.7 336.22-25.68 338.47-26.65 341.12-26.65L341.12-26.65Q343.77-26.65 346.02-25.68 348.27-24.7 349.89-22.9 351.52-21.1 352.42-18.57 353.32-16.05 353.32-13ZM348.47-13L348.47-13Q348.47-17.4 346.49-19.98 344.52-22.55 341.12-22.55L341.12-22.55Q337.72-22.55 335.74-19.98 333.77-17.4 333.77-13L333.77-13Q333.77-8.6 335.74-6.03 337.72-3.45 341.12-3.45L341.12-3.45Q344.52-3.45 346.49-6.03 348.47-8.6 348.47-13ZM377.92-12.95L377.92-12.95Q377.92-17.5 375.67-19.95 373.42-22.4 369.67-22.4L369.67-22.4Q367.57-22.4 366.39-22.25 365.22-22.1 364.52-21.9L364.52-21.9 364.52-5.5Q365.37-4.8 366.97-4.15 368.57-3.5 370.47-3.5L370.47-3.5Q372.47-3.5 373.89-4.23 375.32-4.95 376.22-6.23 377.12-7.5 377.52-9.22 377.92-10.95 377.92-12.95ZM382.77-12.95L382.77-12.95Q382.77-10 381.99-7.5 381.22-5 379.72-3.2 378.22-1.4 376.04-0.4 373.87 0.6 371.07 0.6L371.07 0.6Q368.82 0.6 367.09 0 365.37-0.6 364.52-1.15L364.52-1.15 364.52 9.25 359.87 9.25 359.87-25.2Q361.52-25.6 363.99-26.08 366.47-26.55 369.72-26.55L369.72-26.55Q372.72-26.55 375.12-25.6 377.52-24.65 379.22-22.9 380.92-21.15 381.84-18.63 382.77-16.1 382.77-12.95ZM389.31 0L389.31-25.25Q390.91-25.65 393.54-26.1 396.16-26.55 399.61-26.55L399.61-26.55Q402.11-26.55 403.81-25.88 405.51-25.2 406.66-23.9L406.66-23.9Q407.01-24.15 407.76-24.6 408.51-25.05 409.61-25.48 410.71-25.9 412.06-26.23 413.41-26.55 414.96-26.55L414.96-26.55Q417.96-26.55 419.86-25.68 421.76-24.8 422.84-23.2 423.91-21.6 424.29-19.4 424.66-17.2 424.66-14.6L424.66-14.6 424.66 0 420.01 0 420.01-13.6Q420.01-15.9 419.79-17.55 419.56-19.2 418.94-20.3 418.31-21.4 417.24-21.93 416.16-22.45 414.46-22.45L414.46-22.45Q412.11-22.45 410.59-21.83 409.06-21.2 408.51-20.7L408.51-20.7Q408.91-19.4 409.11-17.85 409.31-16.3 409.31-14.6L409.31-14.6 409.31 0 404.66 0 404.66-13.6Q404.66-15.9 404.41-17.55 404.16-19.2 403.54-20.3 402.91-21.4 401.84-21.93 400.76-22.45 399.11-22.45L399.11-22.45Q398.41-22.45 397.61-22.4 396.81-22.35 396.09-22.28 395.36-22.2 394.76-22.1 394.16-22 393.96-21.95L393.96-21.95 393.96 0 389.31 0ZM430.91-12.95L430.91-12.95Q430.91-16.4 431.91-18.98 432.91-21.55 434.56-23.25 436.21-24.95 438.36-25.8 440.51-26.65 442.76-26.65L442.76-26.65Q448.01-26.65 450.81-23.38 453.61-20.1 453.61-13.4L453.61-13.4Q453.61-13.1 453.61-12.63 453.61-12.15 453.56-11.75L453.56-11.75 435.76-11.75Q436.06-7.7 438.11-5.6 440.16-3.5 444.51-3.5L444.51-3.5Q446.96-3.5 448.64-3.93 450.31-4.35 451.16-4.75L451.16-4.75 451.81-0.85Q450.96-0.4 448.84 0.1 446.71 0.6 444.01 0.6L444.01 0.6Q440.61 0.6 438.14-0.43 435.66-1.45 434.06-3.25 432.46-5.05 431.69-7.53 430.91-10 430.91-12.95ZM435.86-15.5L448.76-15.5Q448.81-18.65 447.19-20.68 445.56-22.7 442.71-22.7L442.71-22.7Q441.11-22.7 439.89-22.08 438.66-21.45 437.81-20.45 436.96-19.45 436.49-18.15 436.01-16.85 435.86-15.5L435.86-15.5ZM460.31 0L460.31-25.25Q461.91-25.65 464.56-26.1 467.21-26.55 470.66-26.55L470.66-26.55Q473.76-26.55 475.81-25.68 477.86-24.8 479.08-23.23 480.31-21.65 480.81-19.45 481.31-17.25 481.31-14.6L481.31-14.6 481.31 0 476.66 0 476.66-13.6Q476.66-16 476.33-17.7 476.01-19.4 475.26-20.45 474.51-21.5 473.26-21.98 472.01-22.45 470.16-22.45L470.16-22.45Q469.41-22.45 468.61-22.4 467.81-22.35 467.08-22.28 466.36-22.2 465.78-22.1 465.21-22 464.96-21.95L464.96-21.95 464.96 0 460.31 0ZM493.36-34.05L493.36-26 503.21-26 503.21-22.1 493.36-22.1 493.36-10.1Q493.36-8.15 493.66-6.88 493.96-5.6 494.56-4.88 495.16-4.15 496.06-3.85 496.96-3.55 498.16-3.55L498.16-3.55Q500.26-3.55 501.53-4.03 502.81-4.5 503.31-4.7L503.31-4.7 504.21-0.85Q503.51-0.5 501.76 0.03 500.01 0.55 497.76 0.55L497.76 0.55Q495.11 0.55 493.38-0.13 491.66-0.8 490.61-2.15 489.56-3.5 489.13-5.48 488.71-7.45 488.71-10.05L488.71-10.05 488.71-33.25 493.36-34.05ZM537.9-14.5L537.9-14.5Q538.7-13.5 539.92-11.88 541.15-10.25 542.45-8.28 543.75-6.3 545.02-4.15 546.3-2 547.2 0L547.2 0 541.9 0Q540.9-1.9 539.73-3.85 538.55-5.8 537.35-7.58 536.15-9.35 534.98-10.9 533.8-12.45 532.85-13.6L532.85-13.6Q532.2-13.55 531.52-13.55 530.85-13.55 530.15-13.55L530.15-13.55 525.8-13.55 525.8 0 520.95 0 520.95-34.15Q523-34.65 525.52-34.83 528.05-35 530.15-35L530.15-35Q537.45-35 541.27-32.25 545.1-29.5 545.1-24.05L545.1-24.05Q545.1-20.6 543.27-18.15 541.45-15.7 537.9-14.5ZM530.55-30.75L530.55-30.75Q527.45-30.75 525.8-30.6L525.8-30.6 525.8-17.55 529.25-17.55Q531.75-17.55 533.75-17.8 535.75-18.05 537.13-18.75 538.5-19.45 539.25-20.73 540-22 540-24.1L540-24.1Q540-26.05 539.25-27.35 538.5-28.65 537.23-29.4 535.95-30.15 534.23-30.45 532.5-30.75 530.55-30.75ZM575.05-13L575.05-13Q575.05-9.9 574.15-7.4 573.25-4.9 571.62-3.1 570-1.3 567.75-0.33 565.5 0.65 562.85 0.65L562.85 0.65Q560.2 0.65 557.95-0.33 555.7-1.3 554.07-3.1 552.45-4.9 551.55-7.4 550.65-9.9 550.65-13L550.65-13Q550.65-16.05 551.55-18.57 552.45-21.1 554.07-22.9 555.7-24.7 557.95-25.68 560.2-26.65 562.85-26.65L562.85-26.65Q565.5-26.65 567.75-25.68 570-24.7 571.62-22.9 573.25-21.1 574.15-18.57 575.05-16.05 575.05-13ZM570.2-13L570.2-13Q570.2-17.4 568.22-19.98 566.25-22.55 562.85-22.55L562.85-22.55Q559.45-22.55 557.47-19.98 555.5-17.4 555.5-13L555.5-13Q555.5-8.6 557.47-6.03 559.45-3.45 562.85-3.45L562.85-3.45Q566.25-3.45 568.22-6.03 570.2-8.6 570.2-13ZM586.24-38.8L586.24-24.85Q587.09-25.4 588.82-26 590.54-26.6 592.79-26.6L592.79-26.6Q595.59-26.6 597.77-25.6 599.94-24.6 601.44-22.8 602.94-21 603.72-18.5 604.49-16 604.49-13L604.49-13Q604.49-9.85 603.57-7.33 602.64-4.8 600.94-3.05 599.24-1.3 596.84-0.35 594.44 0.6 591.44 0.6L591.44 0.6Q588.19 0.6 585.69 0.15 583.19-0.3 581.59-0.75L581.59-0.75 581.59-38 586.24-38.8ZM586.24-20.5L586.24-4.05Q586.94-3.85 588.22-3.68 589.49-3.5 591.39-3.5L591.39-3.5Q595.14-3.5 597.39-5.98 599.64-8.45 599.64-13L599.64-13Q599.64-15 599.24-16.75 598.84-18.5 597.94-19.78 597.04-21.05 595.62-21.78 594.19-22.5 592.19-22.5L592.19-22.5Q590.29-22.5 588.69-21.85 587.09-21.2 586.24-20.5L586.24-20.5ZM631.74-26L631.74-0.75Q630.14-0.35 627.52 0.1 624.89 0.55 621.44 0.55L621.44 0.55Q618.44 0.55 616.39-0.33 614.34-1.2 613.09-2.8 611.84-4.4 611.29-6.58 610.74-8.75 610.74-11.4L610.74-11.4 610.74-26 615.39-26 615.39-12.4Q615.39-7.65 616.89-5.6 618.39-3.55 621.94-3.55L621.94-3.55Q622.69-3.55 623.49-3.6 624.29-3.65 624.99-3.73 625.69-3.8 626.27-3.88 626.84-3.95 627.09-4.05L627.09-4.05 627.09-26 631.74-26ZM645.79-3.35L645.79-3.35Q648.64-3.35 650.01-4.1 651.39-4.85 651.39-6.5L651.39-6.5Q651.39-8.2 650.04-9.2 648.69-10.2 645.59-11.45L645.59-11.45Q644.09-12.05 642.71-12.68 641.34-13.3 640.34-14.15 639.34-15 638.74-16.2 638.14-17.4 638.14-19.15L638.14-19.15Q638.14-22.6 640.69-24.63 643.24-26.65 647.64-26.65L647.64-26.65Q648.74-26.65 649.84-26.53 650.94-26.4 651.89-26.23 652.84-26.05 653.56-25.85 654.29-25.65 654.69-25.5L654.69-25.5 653.84-21.5Q653.09-21.9 651.49-22.33 649.89-22.75 647.64-22.75L647.64-22.75Q645.69-22.75 644.24-21.98 642.79-21.2 642.79-19.55L642.79-19.55Q642.79-18.7 643.11-18.05 643.44-17.4 644.11-16.88 644.79-16.35 645.79-15.9 646.79-15.45 648.19-14.95L648.19-14.95Q650.04-14.25 651.49-13.58 652.94-12.9 653.96-12 654.99-11.1 655.54-9.83 656.09-8.55 656.09-6.7L656.09-6.7Q656.09-3.1 653.41-1.25 650.74 0.6 645.79 0.6L645.79 0.6Q642.34 0.6 640.39 0.03 638.44-0.55 637.74-0.85L637.74-0.85 638.59-4.85Q639.39-4.55 641.14-3.95 642.89-3.35 645.79-3.35ZM666.39-34.05L666.39-26 676.24-26 676.24-22.1 666.39-22.1 666.39-10.1Q666.39-8.15 666.69-6.88 666.99-5.6 667.59-4.88 668.19-4.15 669.09-3.85 669.99-3.55 671.19-3.55L671.19-3.55Q673.29-3.55 674.56-4.03 675.84-4.5 676.34-4.7L676.34-4.7 677.24-0.85Q676.54-0.5 674.79 0.03 673.04 0.55 670.79 0.55L670.79 0.55Q668.14 0.55 666.41-0.13 664.69-0.8 663.64-2.15 662.59-3.5 662.16-5.48 661.74-7.45 661.74-10.05L661.74-10.05 661.74-33.25 666.39-34.05Z" opacity="1" transform="matrix(1,0,0,1,0,0)" fill="#6b7280" class="undefined-text-1" data-fill-palette-color="secondary" id="text-1"></path></svg></g></svg></g></svg></g></svg></g><g transform="matrix(1,0,0,1,0,35.95222661072701)"><svg viewBox="0 0 152.61979015299025 152.61979015299025" height="152.61979015299025" width="152.61979015299025"><g><svg xmlns="http://www.w3.org/2000/svg" xmlns:xlink="http://www.w3.org/1999/xlink" version="1.1" x="0" y="0" viewBox="22.48999786376953 23.4949951171875 54.720001220703125 54.720001220703125" style="enable-background:new 0 0 100 100;" xml:space="preserve" height="152.61979015299025" width="152.61979015299025" class="icon-icon-0" data-fill-palette-color="accent" id="icon-0"><g fill="#6b7280" data-fill-palette-color="accent"><path d="M49.85 78.215c-15.087 0-27.36-12.274-27.36-27.36s12.273-27.36 27.36-27.36 27.36 12.274 27.36 27.36S64.937 78.215 49.85 78.215zM49.85 25.494c-13.983 0-25.36 11.376-25.36 25.36s11.377 25.36 25.36 25.36 25.36-11.376 25.36-25.36S63.834 25.494 49.85 25.494z" fill="#6b7280" data-fill-palette-color="accent"></path><g fill="#6b7280" data-fill-palette-color="accent"><path d="M49.494 66.314c-6.172 0-11.928-0.256-16.207-0.722-6.862-0.747-7.788-1.76-7.788-2.654 0-0.276 0.224-0.5 0.5-0.5 0.274 0 0.498 0.222 0.5 0.496 0.274 0.96 7.765 2.38 22.995 2.38 15.244 0 22.734-1.422 22.997-2.382 0-0.276 0.224-0.497 0.499-0.497 0.276 0 0.5 0.227 0.5 0.503C73.49 66.071 55.124 66.314 49.494 66.314z" fill="#6b7280" data-fill-palette-color="accent"></path><path d="M75.974 51.355H23.016c-0.276 0-0.5-0.224-0.5-0.5s0.224-0.5 0.5-0.5h52.958c0.276 0 0.5 0.224 0.5 0.5S76.25 51.355 75.974 51.355z" fill="#6b7280" data-fill-palette-color="accent"></path><path d="M25.995 39.291c-0.276 0-0.496-0.244-0.496-0.52 0-2.788 16.781-3.089 23.995-3.089 7.215 0 23.996 0.301 23.996 3.089 0 0.276-0.224 0.5-0.5 0.5s-0.5-0.224-0.5-0.5c-0.445-0.844-7.881-2.089-22.996-2.089-15.114 0-22.55 1.246-23.003 2.13C26.491 39.088 26.271 39.291 25.995 39.291z" fill="#6b7280" data-fill-palette-color="accent"></path></g><g fill="#6b7280" data-fill-palette-color="accent"><path d="M37.411 74.85c-4.002 0-4.204-19.989-4.204-23.996 0-6.178 0.33-11.939 0.931-16.223 0.977-6.967 2.336-7.773 3.273-7.773 0.276 0 0.5 0.224 0.5 0.5s-0.224 0.5-0.5 0.5c-0.135 0-1.342 0.194-2.283 6.912-0.594 4.239-0.921 9.951-0.921 16.084 0 14.204 1.663 22.996 3.204 22.996 0.276 0 0.5 0.224 0.5 0.5S37.687 74.85 37.411 74.85z" fill="#6b7280" data-fill-palette-color="accent"></path><path d="M49.494 77.834c-0.276 0-0.5-0.224-0.5-0.5V24.376c0-0.276 0.224-0.5 0.5-0.5s0.5 0.224 0.5 0.5v52.958C49.994 77.61 49.77 77.834 49.494 77.834z" fill="#6b7280" data-fill-palette-color="accent"></path><path d="M61.578 74.85c-0.276 0-0.5-0.224-0.5-0.5s0.224-0.5 0.5-0.5c0.657 0 1.695-1.811 2.454-6.916 0.631-4.238 0.978-9.948 0.978-16.08 0-14.204-1.781-22.996-3.432-22.996-0.276 0-0.5-0.224-0.5-0.5s0.224-0.5 0.5-0.5c4.218 0 4.432 19.989 4.432 23.996 0 6.179-0.351 11.942-0.988 16.227C63.985 74.045 62.56 74.85 61.578 74.85z" fill="#6b7280" data-fill-palette-color="accent"></path></g></g></svg></g></svg></g></svg></g><defs></defs></svg><rect width="386.350691279493" height="200" fill="none" stroke="none" visibility="hidden"></rect></g></svg></g></svg>